<svg width="47" height="31" fill="none" xmlns="http://www.w3.org/2000/svg"><g filter="url(#a)" fill="#000"><path d="m46.7 15.4-6.5-8.2c-.3-.4-.7-.6-1.2-.6h-8.3V1.5C30.7.7 30 0 29.2 0H1.5C.7 0 0 .7 0 1.5S.7 3 1.5 3h26.2V24.7H15.8a4.7 4.7 0 0 0-4.5-3.3 4.9 4.9 0 0 0-4.8 4.8c0 2.6 2.2 4.8 4.8 4.8 2.1 0 3.9-1.4 4.5-3.3h13.4c.8 0 1.5-.7 1.5-1.5V9.6h7.6l5.7 7.3v7.9h-2.2a4.7 4.7 0 0 0-4.5-3.3 4.9 4.9 0 0 0-4.8 4.8c0 2.6 2.1 4.8 4.8 4.8 2.1 0 3.9-1.4 4.5-3.3h3.7c.8 0 1.5-.7 1.5-1.5v-9.9c0-.4-.1-.7-.3-1ZM11.3 28c-1 0-1.8-.8-1.8-1.8s.8-1.8 1.8-1.8 1.8.8 1.8 1.8-.9 1.8-1.8 1.8Zm26.1 0c-1 0-1.8-.8-1.8-1.8s.8-1.8 1.8-1.8 1.8.8 1.8 1.8-.9 1.8-1.8 1.8Z"/><path d="M19.4 9.6c.8 0 1.5-.7 1.5-1.5s-.7-1.5-1.5-1.5H4.8c-.8 0-1.5.7-1.5 1.5S4 9.6 4.8 9.6h14.6ZM17.7 14.7c0-.8-.7-1.5-1.5-1.5H1.5c-.8 0-1.5.7-1.5 1.5s.7 1.5 1.5 1.5h14.7c.8 0 1.5-.7 1.5-1.5Z"/></g><defs><filter id="a" x="-4" y="0" width="55" height="39.1" filterUnits="userSpaceOnUse" color-interpolation-filters="sRGB"><feFlood flood-opacity="0" result="BackgroundImageFix"/><feColorMatrix in="SourceAlpha" values="0 0 0 0 0 0 0 0 0 0 0 0 0 0 0 0 0 0 127 0" result="hardAlpha"/><feOffset dy="4"/><feGaussianBlur stdDeviation="2"/><feComposite in2="hardAlpha" operator="out"/><feColorMatrix values="0 0 0 0 0 0 0 0 0 0 0 0 0 0 0 0 0 0 0.25 0"/><feBlend in2="BackgroundImageFix" result="effect1_dropShadow"/><feBlend in="SourceGraphic" in2="effect1_dropShadow" result="shape"/></filter></defs></svg>